
      <svg data-logo="logo" xmlns="http://www.w3.org/2000/svg" viewBox="0 0 41 47">
        <g id="logogram" transform="translate(0, 3) rotate(0) "><path d="M0 24.9721C0 22.9632 0.395671 20.9739 1.16447 19.118C1.93328 17.2619 3.06009 15.5755 4.48064 14.155C5.90118 12.7344 7.58755 11.6076 9.44355 10.8388C11.2996 10.0701 13.2889 9.67435 15.2979 9.67435V24.9721H0Z" fill="#442781"/><path d="M0 24.9721C0 26.9811 0.395671 28.9704 1.16447 30.8264C1.93328 32.6824 3.06009 34.3688 4.48064 35.7894C5.90118 37.2099 7.58755 38.3368 9.44355 39.1056C11.2996 39.8744 13.2889 40.27 15.2979 40.27V24.9721H0Z" fill="#61459C"/><path d="M30.5955 24.9721C30.5955 26.9811 30.2001 28.9704 29.4314 30.8264C28.6626 32.6824 27.5358 34.3688 26.115 35.7894C24.6945 37.2099 23.0081 38.3368 21.152 39.1056C19.2961 39.8744 17.3067 40.27 15.2979 40.27V24.9721H30.5955Z" fill="#A992DB"/><path d="M40.0277 11.7562C40.0277 18.0999 34.885 23.2424 28.5414 23.2424H17.0553V11.7562C17.0553 5.41257 22.1979 0.269989 28.5414 0.269989C34.885 0.269989 40.0277 5.41257 40.0277 11.7562Z" fill="#FF7917"/></g>
        <g id="logotype" transform="translate(41, 26.5)"></g>
        
      </svg>
    